<svg width="195.57px" height="96.744px" enable-background="new 0 0 195.574 96.744" version="1.1" viewBox="0 0 195.57 96.744" xmlns="http://www.w3.org/2000/svg"><g fill="#fff"><path d="m171.87 49.372c13.1 0 23.705 10.614 23.705 23.69 0 13.077-10.605 23.682-23.705 23.682-13.082 0-23.688-10.605-23.688-23.682 0-13.076 10.606-23.69 23.688-23.69z"/><path d="m122.47 49.374c13.105 0 23.711 10.61 23.711 23.687s-10.605 23.683-23.711 23.683c-13.076 0-23.683-10.606-23.683-23.683s10.607-23.687 23.683-23.687z"/><path d="m73.084 49.374c13.097 0 23.703 10.61 23.703 23.687s-10.606 23.682-23.703 23.682c-13.085 0-23.69-10.606-23.69-23.683s10.605-23.686 23.69-23.686z"/><path d="m23.688 49.376c13.1 0 23.705 10.606 23.705 23.682 0 13.077-10.605 23.682-23.705 23.682-13.082 0-23.688-10.605-23.688-23.682 0-13.076 10.606-23.682 23.688-23.682z"/></g><g fill="#666"><path d="m174.27 77.219v10.987h-4.997v-10.864l-9.847-19.436h5.721l6.095 12.646c0.213 0.411 0.339 0.783 0.438 1.121 0.099 0.336 0.176 0.61 0.256 0.825h0.045c0.151-0.642 0.373-1.275 0.695-1.903l6.323-12.689h5.319z"/><path d="m129.59 88.205-6.406-11.019c-0.132-0.288-0.242-0.532-0.309-0.763-0.049-0.258-0.121-0.502-0.212-0.763h-0.092c-0.116 0.275-0.19 0.523-0.267 0.775-0.077 0.222-0.187 0.462-0.336 0.75l-6.523 11.019h-6.123l10.137-15.189-9.26-15.111h6.186l5.401 9.954c0.519 0.885 0.861 1.64 1.048 2.266h0.073c0.305-0.793 0.537-1.311 0.657-1.56 0.109-0.237 2.209-3.797 6.27-10.66h5.674l-9.459 15.02 9.581 15.281z"/><path d="m83.288 79.383c0 2.628-0.985 4.783-2.925 6.385-1.957 1.633-4.47 2.437-7.566 2.437h-9.908v-30.301h9.572c2.898 0 5.194 0.646 6.867 1.884 1.684 1.266 2.523 2.952 2.523 5.089 0 1.646-0.504 3.096-1.5 4.348-1.014 1.28-2.322 2.15-3.956 2.67v0.091c2.164 0.274 3.842 1.075 5.069 2.372 1.199 1.326 1.824 2.982 1.824 5.025zm-6.769-13.539c0-1.205-0.454-2.144-1.332-2.795-0.907-0.649-2.224-0.973-3.979-0.973h-3.277v8.383h3.232c1.693 0 3.021-0.4 3.955-1.201 0.926-0.8 1.401-1.92 1.401-3.414zm1.434 13.403c0-1.449-0.508-2.585-1.558-3.409-1.051-0.814-2.595-1.206-4.674-1.206h-3.79v9.413h4.239c1.801 0 3.212-0.438 4.237-1.308 1.044-0.856 1.546-2.027 1.546-3.49z"/><path d="m32.448 88.211-2.778-7.663h-12.128l-2.645 7.663h-5.481l11.467-30.309h5.583l11.512 30.309zm-8.79-25.756h-0.129c-0.107 0.847-0.238 1.577-0.45 2.174l-4.137 11.679h9.293l-4.163-11.679c-0.132-0.366-0.283-1.09-0.414-2.174z"/></g><g fill="#333"><path d="m174.27 27.847v10.987h-4.997v-10.864l-9.847-19.436h5.721l6.095 12.646c0.213 0.411 0.339 0.783 0.438 1.121 0.099 0.336 0.176 0.61 0.256 0.825h0.045c0.151-0.642 0.373-1.275 0.695-1.903l6.323-12.689h5.319z"/><path d="m129.59 38.831-6.406-11.019c-0.132-0.288-0.242-0.532-0.309-0.763-0.049-0.258-0.121-0.502-0.212-0.763h-0.092c-0.116 0.275-0.19 0.523-0.267 0.775-0.077 0.222-0.187 0.462-0.336 0.75l-6.523 11.019h-6.123l10.137-15.189-9.259-15.111h6.186l5.401 9.954c0.519 0.885 0.861 1.64 1.048 2.266h0.073c0.305-0.793 0.537-1.311 0.657-1.56 0.109-0.237 2.209-3.797 6.27-10.66h5.674l-9.459 15.02 9.581 15.281z"/><path d="m83.288 30.01c0 2.628-0.985 4.783-2.925 6.385-1.957 1.633-4.47 2.437-7.566 2.437h-9.908v-30.302h9.572c2.898 0 5.194 0.646 6.867 1.884 1.684 1.266 2.523 2.952 2.523 5.089 0 1.646-0.504 3.096-1.5 4.348-1.014 1.28-2.322 2.15-3.956 2.67v0.091c2.164 0.274 3.842 1.075 5.069 2.372 1.199 1.327 1.824 2.983 1.824 5.026zm-6.769-13.539c0-1.205-0.454-2.144-1.332-2.795-0.907-0.649-2.224-0.973-3.979-0.973h-3.277v8.383h3.232c1.693 0 3.021-0.4 3.955-1.201 0.926-0.801 1.401-1.92 1.401-3.414zm1.434 13.402c0-1.449-0.508-2.585-1.558-3.409-1.051-0.814-2.595-1.206-4.674-1.206h-3.79v9.413h4.239c1.801 0 3.212-0.438 4.237-1.308 1.044-0.855 1.546-2.026 1.546-3.49z"/><path d="m32.448 38.835-2.778-7.663h-12.128l-2.645 7.663h-5.481l11.467-30.309h5.583l11.512 30.309zm-8.79-25.756h-0.129c-0.107 0.847-0.238 1.577-0.45 2.174l-4.137 11.679h9.293l-4.163-11.679c-0.132-0.366-0.283-1.09-0.414-2.174z"/></g></svg>
