<?xml version="1.0" encoding="UTF-8" standalone="no"?>
<svg
   xmlns:dc="http://purl.org/dc/elements/1.1/"
   xmlns:cc="http://creativecommons.org/ns#"
   xmlns:rdf="http://www.w3.org/1999/02/22-rdf-syntax-ns#"
   xmlns:svg="http://www.w3.org/2000/svg"
   xmlns="http://www.w3.org/2000/svg"
   id="svg7717"
   xml:space="preserve"
   enable-background="new 0 0 750 630.455"
   viewBox="0 0 750 630.455"
   height="630.455px"
   width="750px"
   y="0px"
   x="0px"
   version="1.1"><metadata
   id="metadata7723"><rdf:RDF><cc:Work
       rdf:about=""><dc:format>image/svg+xml</dc:format><dc:type
         rdf:resource="http://purl.org/dc/dcmitype/StillImage" /><dc:title></dc:title></cc:Work></rdf:RDF></metadata><defs
   id="defs7721">
			
			
		
			
			
		
				
				
				
			
			
		
			
		
			
		
			
		</defs>
<path
   style="display:inline;fill:#000000"
   id="path7396"
   d="m 664.368,213.96 c -6.72,-16.682 -20.542,-20.877 -21.818,-22.003 -11.701,-10.336 -2.474,-21.214 -19.946,-30.695 -18.281,-9.914 -71.979,-36.997 -114.22,-31.375 -9.225,1.235 -27.837,17.608 -41.214,17.608 -21.865,0 -92.165,0 -92.165,0 0,0 -70.3,0 -92.165,0 -13.377,0 -31.99,-16.374 -41.215,-17.608 -42.248,-5.622 -95.939,21.461 -114.22,31.375 -17.472,9.481 -8.243,20.359 -19.941,30.695 -1.281,1.125 -15.104,5.321 -21.823,22.003 -62.752,156.024 -87.382,255.154 -85.546,315.169 2.891,94.416 76.578,101.326 76.578,101.326 37.033,-8.617 111.55,-129.135 168.535,-129.135 31.16,0 129.797,0 129.797,0 0,0 98.637,0 129.797,0 56.985,0 131.502,120.518 168.538,129.135 0,0 73.678,-6.91 76.563,-101.326 1.864,-60.015 -22.81,-159.145 -85.535,-315.169 z" /><path
   d="m 229.688,415.049 -2.783,2.774 c 0.961,0.62 1.92,0.846 2.783,0.846 h 30.818 l 3.602,-3.62 c -13.822,0 -26.664,0 -34.42,0 z m 34.42,34.424 v 0 c 0,0 0,-15.446 0,-34.424 l -3.602,3.62 v 30.804 0.846 l 0.093,0.236 c 0.128,0.545 0.345,1.119 0.724,1.689 z m 27.106,0.234 c -0.407,2.329 -6.975,3.491 -13.542,3.491 -6.567,0 -13.134,-1.162 -13.542,-3.491 -0.014,-0.082 -0.021,-0.165 -0.021,-0.234 l -2.785,2.771 c 0.929,1.367 2.743,2.702 6.168,3.522 2.721,0.672 6.333,1.041 10.18,1.041 3.818,0 7.432,-0.369 10.175,-1.041 3.43,-0.82 5.243,-2.157 6.143,-3.524 l -2.754,-2.77 c -10e-4,0.07 -0.008,0.153 -0.022,0.235 z M 331.963,391.3 c -0.845,-3.402 -2.181,-5.213 -3.553,-6.143 l -2.755,2.778 c 4.967,0 4.967,27.113 0,27.113 l 2.76,2.777 c 1.369,-0.93 2.705,-2.747 3.548,-6.147 0.664,-2.746 1.032,-6.357 1.032,-10.192 0,-3.829 -0.368,-7.441 -1.032,-10.186 z m -40.728,58.173 2.754,2.77 c 0.624,-0.945 0.846,-1.92 0.846,-2.77 v -30.804 l -3.6,-3.62 c 0,13.826 0,26.679 0,34.424 z m 34.419,-34.424 v 0 c 0,0 -15.461,0 -34.419,0 l 3.6,3.62 h 30.819 1.496 l 0.34,-0.345 c 0.308,-0.128 0.617,-0.303 0.925,-0.498 z m -61.546,-61.54 c 0,-0.066 0.008,-0.142 0.02,-0.216 0.009,-0.049 0.021,-0.096 0.033,-0.142 0.005,-0.014 0.01,-0.022 0.017,-0.041 0.015,-0.062 0.028,-0.122 0.045,-0.183 0.003,-0.005 0.006,-0.011 0.009,-0.017 0.03,-0.065 0.066,-0.124 0.106,-0.165 l -2.57,-2.57 c -0.969,1.121 -1.261,2.293 -1.261,3.333 v 30.802 l 3.602,3.625 c -10e-4,-13.83 -10e-4,-26.684 -10e-4,-34.426 z m 27.126,10e-4 v 0 c 0.001,0 0.001,15.442 0.001,34.425 l 3.601,-3.625 v 0 -30.8 c 0,-0.852 -0.222,-1.835 -0.846,-2.773 z m 34.421,34.426 2.755,-2.778 c -0.933,-0.621 -1.92,-0.846 -2.755,-0.846 h -30.819 l -3.601,3.625 c 13.807,-0.001 26.661,-0.001 34.42,-0.001 z m -56.453,-37.412 c 0.004,0 0.008,-10e-4 0.013,-0.002 0.284,-0.064 0.579,-0.124 0.88,-0.181 0.025,-0.004 0.049,-0.008 0.074,-0.012 0.295,-0.054 0.62,-0.105 0.938,-0.13 0.025,-0.001 0.046,-0.003 0.059,-0.007 0.333,-0.045 0.658,-0.088 0.989,-0.128 0,0 0.002,0 0.002,0 0.336,-0.041 0.679,-0.077 1.027,-0.11 0.014,0 0.027,-0.002 0.041,-0.003 0.328,-0.031 0.661,-0.057 0.996,-0.081 0.046,-0.003 0.092,-0.005 0.138,-0.007 0.323,-0.014 0.649,-0.018 0.977,-0.028 0.056,-0.002 0.111,-0.004 0.166,-0.008 0.33,-0.013 0.661,-0.025 0.994,-0.033 0.042,-10e-4 0.083,-10e-4 0.125,-0.002 0.35,-0.008 0.702,-0.012 1.052,-0.012 6.768,0 13.563,1.227 13.563,3.729 l 2.755,-2.772 c -0.901,-1.367 -2.713,-2.708 -6.144,-3.524 -2.743,-0.673 -6.357,-1.036 -10.175,-1.036 -3.846,0 -7.459,0.362 -10.18,1.036 -2.939,0.718 -4.715,1.796 -5.725,2.963 l 2.57,2.57 c 0.616,-1.007 2.438,-1.747 4.865,-2.222 z m -39.514,37.412 v 0 l -2.783,-2.778 c -1.367,0.93 -2.679,2.74 -3.525,6.143 -0.664,2.746 -1.032,6.358 -1.032,10.188 0,3.835 0.368,7.447 1.032,10.193 0.845,3.402 2.158,5.212 3.525,6.143 l 2.783,-2.774 c -4.996,-0.002 -4.996,-27.115 0,-27.115 z m 34.42,0 -3.602,-3.625 h -30.817 c -0.863,0 -1.822,0.226 -2.784,0.846 l 2.784,2.778 c -0.001,10e-4 15.454,10e-4 34.419,10e-4 z"
   style="display:inline;fill:#333333"
   id="path7486" /><g
   style="display:inline"
   id="Layer_1">
	
	
	
	
	
	<g
   style="display:inline"
   id="Menu_Key">
		
		<g
   style="display:inline"
   id="g7565">
			<path
   d="m 448.915,280.366 c 0,10.397 -8.42,18.817 -18.789,18.817 -10.398,0 -18.819,-8.42 -18.819,-18.817 0,-10.371 8.421,-18.805 18.819,-18.805 10.369,0.001 18.789,8.434 18.789,18.805 z"
   id="path7551"
   style="display:inline;fill:#333333" /><path
   style="display:inline;fill:#000000;fill-opacity:1;stroke:#000000;stroke-miterlimit:10"
   id="path7555"
   d="m 446.228,280.366 c 0,8.902 -7.229,16.103 -16.102,16.103 -8.902,0 -16.103,-7.201 -16.103,-16.103 0,-8.896 7.201,-16.103 16.103,-16.103 8.873,0.001 16.102,7.208 16.102,16.103 z"
   stroke-miterlimit="10" />
			<g
   style="display:inline"
   id="g7563">
				<rect
   style="fill:#333333"
   id="rect7561"
   height="1.533"
   width="14.361"
   y="283.46899"
   x="422.931" />
				<rect
   style="fill:#333333"
   id="rect7559"
   height="1.552"
   width="14.361"
   y="279.66"
   x="422.931" /><rect
   style="fill:#333333"
   id="rect7557"
   height="1.552"
   width="14.361"
   y="275.741"
   x="422.931" />
				
			</g>
		</g>
		<g
   style="display:none"
   display="none"
   id="Menu_Pressed">
			<path
   style="display:inline;fill:#ffffff;fill-opacity:1;stroke:#ffffff;stroke-miterlimit:10"
   id="path7567"
   d="m 446.228,280.366 c 0,8.902 -7.229,16.103 -16.102,16.103 -8.902,0 -16.103,-7.201 -16.103,-16.103 0,-8.896 7.201,-16.103 16.103,-16.103 8.873,0.001 16.102,7.208 16.102,16.103 z"
   stroke-miterlimit="10"
   display="inline" />
			<g
   style="display:inline"
   id="g7575"
   display="inline">
				
				<rect
   style="fill:#666666"
   id="rect7573"
   height="1.533"
   width="14.361"
   y="283.46899"
   x="422.931" /><rect
   style="fill:#666666"
   id="rect7571"
   height="1.552"
   width="14.361"
   y="279.66"
   x="422.931" />
				<rect
   style="fill:#666666"
   id="rect7569"
   height="1.552"
   width="14.361"
   y="275.741"
   x="422.931" />
			</g>
		</g>
	</g>
	<g
   id="Switcher_Key">
		
		<g
   style="display:inline"
   id="g7591">
			<path
   d="m 340.937,280.366 c 0,10.397 -8.421,18.817 -18.819,18.817 -10.368,0 -18.789,-8.42 -18.789,-18.817 0,-10.371 8.42,-18.805 18.789,-18.805 10.398,0.001 18.819,8.434 18.819,18.805 z"
   id="path7579"
   style="display:inline;fill:#333333" /><path
   style="display:inline;fill:#000000;fill-opacity:1;stroke:#000000;stroke-miterlimit:10"
   id="path7583"
   d="m 338.221,280.366 c 0,8.902 -7.201,16.103 -16.103,16.103 -8.872,0 -16.103,-7.201 -16.103,-16.103 0,-8.896 7.231,-16.103 16.103,-16.103 8.902,0.001 16.103,7.208 16.103,16.103 z"
   stroke-miterlimit="10" /><g
   style="display:inline"
   id="g7589">
				<polygon
   style="display:inline;fill:#333333"
   id="polygon7585"
   points="322.043,277.802 323.843,277.802 323.843,274.743 314.952,274.743 314.952,282.132 319.602,282.132 319.602,280.266 316.571,280.266 316.571,276.481 322.043,276.481 " />
				<path
   style="display:inline;fill:#333333"
   id="path7587"
   d="m 320.353,278.427 v 7.584 h 8.96 v -7.584 z m 7.16,5.783 h -5.47 v -3.945 h 5.47 z" />
			</g>
			
		</g>
	</g>
	<g
   id="Left_Stick">
		<path
   stroke-miterlimit="10"
   d="m 185.468,351.49 c -37.328,0 -67.695,-30.365 -67.695,-67.688 0,-37.323 30.366,-67.686 67.695,-67.686 37.336,0 67.707,30.363 67.707,67.686 0,37.323 -30.37,67.688 -67.707,67.688 z"
   id="path7594"
   style="display:none;fill:#080808;stroke:#140c0c;stroke-width:2;stroke-miterlimit:10" />
		<path
   style="stroke:#333333;stroke-width:2;stroke-miterlimit:10"
   id="path7598"
   d="m 241.571,279.865 c 0,30.977 -25.106,56.084 -56.103,56.084 -30.981,0 -56.092,-25.107 -56.092,-56.084 0,-31 25.111,-56.106 56.092,-56.106 30.997,0 56.103,25.106 56.103,56.106 z"
   stroke-miterlimit="10" />
	</g>
	<g
   id="Right_Stick">
		<path
   stroke-miterlimit="10"
   d="m 473.042,465.461 c -37.324,0 -67.688,-30.364 -67.688,-67.686 0,-37.326 30.363,-67.705 67.688,-67.705 37.322,0 67.707,30.378 67.707,67.705 0,37.323 -30.385,67.686 -67.707,67.686 z"
   id="path7601"
   style="display:none;fill:#080808;stroke:#140c0c;stroke-width:2;stroke-miterlimit:10" />
		<path
   style="display:inline;stroke:#333333;stroke-width:2;stroke-miterlimit:10;stroke-opacity:1"
   id="path7605"
   d="m 529.151,393.815 c 0,30.999 -25.106,56.105 -56.109,56.105 -30.975,0 -56.083,-25.106 -56.083,-56.105 0,-30.979 25.108,-56.085 56.083,-56.085 31.003,0 56.109,25.106 56.109,56.085 z"
   stroke-miterlimit="10" />
	</g>
	<g
   style="display:inline"
   id="Button_Base">
		
		<g
   id="Y">
			<path
   style="display:none;fill:#0a0a0a"
   id="path7613"
   d="m 566.76,254.196 c -13.889,0 -25.188,-11.308 -25.188,-25.207 0,-13.888 11.299,-25.187 25.188,-25.187 13.898,0 25.205,11.299 25.205,25.187 0,13.9 -11.307,25.207 -25.205,25.207 z" />
			<path
   style="fill:#333333"
   id="path7615"
   d="m 566.76,205.303 c 13.1,0 23.705,10.605 23.705,23.687 0,13.101 -10.605,23.707 -23.705,23.707 -13.082,0 -23.688,-10.606 -23.688,-23.707 -10e-4,-13.082 10.606,-23.687 23.688,-23.687 m 0,-3 c -14.716,0 -26.688,11.972 -26.688,26.687 0,14.726 11.973,26.707 26.688,26.707 14.725,0 26.705,-11.981 26.705,-26.707 0,-14.716 -11.98,-26.687 -26.705,-26.687 z" />
		</g>
		
		<g
   id="X">
			<path
   style="display:none;fill:#0a0a0a"
   id="path7623"
   d="m 516.217,304.732 c -13.886,0 -25.183,-11.307 -25.183,-25.204 0,-13.89 11.297,-25.189 25.183,-25.189 13.901,0 25.211,11.3 25.211,25.189 0,13.898 -11.31,25.204 -25.211,25.204 z" />
			<path
   style="display:inline;fill:#333333"
   id="path7625"
   d="m 516.217,255.839 c 13.105,0 23.711,10.605 23.711,23.689 0,13.099 -10.605,23.704 -23.711,23.704 -13.076,0 -23.683,-10.605 -23.683,-23.704 0,-13.084 10.607,-23.689 23.683,-23.689 m 0,-3 c -14.713,0 -26.683,11.973 -26.683,26.689 0,14.725 11.97,26.704 26.683,26.704 14.729,0 26.711,-11.979 26.711,-26.704 0,-14.716 -11.983,-26.689 -26.711,-26.689 z" />
		</g><g
   id="B">
			<path
   style="display:none;fill:#0a0a0a"
   id="path7618"
   d="m 617.3,304.732 c -13.89,0 -25.19,-11.307 -25.19,-25.204 0,-13.89 11.3,-25.189 25.19,-25.189 13.897,0 25.203,11.3 25.203,25.189 0,13.898 -11.306,25.204 -25.203,25.204 z" />
			<path
   style="fill:#333333"
   id="path7620"
   d="m 617.3,255.839 c 13.097,0 23.703,10.605 23.703,23.689 0,13.099 -10.606,23.704 -23.703,23.704 -13.085,0 -23.69,-10.605 -23.69,-23.704 -10e-4,-13.084 10.605,-23.689 23.69,-23.689 m 0,-3 c -14.717,0 -26.69,11.973 -26.69,26.689 0,14.725 11.973,26.704 26.69,26.704 14.724,0 26.703,-11.979 26.703,-26.704 0,-14.716 -11.979,-26.689 -26.703,-26.689 z" />
		</g><g
   id="A">
			<path
   style="display:none;fill:#0a0a0a"
   id="path7608"
   d="m 566.76,355.27 c -13.889,0 -25.188,-11.304 -25.188,-25.199 0,-13.892 11.299,-25.194 25.188,-25.194 13.898,0 25.205,11.302 25.205,25.194 0,13.894 -11.307,25.199 -25.205,25.199 z" />
			<path
   style="fill:#333333"
   id="path7610"
   d="m 566.76,306.377 c 13.1,0 23.705,10.605 23.705,23.694 0,13.093 -10.605,23.699 -23.705,23.699 -13.082,0 -23.688,-10.605 -23.688,-23.699 -10e-4,-13.089 10.606,-23.694 23.688,-23.694 m 0,-3 c -14.716,0 -26.688,11.975 -26.688,26.694 0,14.722 11.973,26.699 26.688,26.699 14.725,0 26.705,-11.977 26.705,-26.699 0,-14.719 -11.98,-26.694 -26.705,-26.694 z" />
		</g>
	</g>
	<g
   style="display:inline"
   id="g7657">
		<g
   style="display:none"
   id="g7633">
			
			<path
   style="display:none;fill:#0d0d0d"
   id="path7631"
   d="m 476.191,153.526 -3.638,-6.778 c -1.856,0.48 -3.653,0.748 -5.384,0.748 -21.865,0 -92.165,0 -92.165,0 0,0 -70.3,0 -92.165,0 -1.392,0 -2.818,-0.189 -4.282,-0.501 l -3.49,6.531 c 11.631,1.905 100.548,2.973 100.548,2.973 0,0 88.945,-1.068 100.576,-2.973 z" /><path
   style="display:none;fill:#1a1a1a"
   id="path7629"
   d="m 375.615,156.499 c 0,0 -88.917,-1.067 -100.548,-2.973 l -16.384,30.538 c 20.238,23.271 41.583,53.312 56.441,53.312 15.063,0 60.49,0 60.49,0 0,0 45.428,0 60.496,0 14.872,0 36.197,-30.041 56.463,-53.312 L 476.19,153.526 c -11.63,1.905 -100.575,2.973 -100.575,2.973 z" />
		</g>
		<g
   style="display:inline"
   id="RB_1_">
			
			<path
   style="fill:#333333"
   id="path7637"
   d="m 510.979,134.615 c 24.273,-7.582 120.772,34.465 120.8,34.478 -0.212,-0.328 -0.458,-0.654 -0.698,-0.979 -0.029,-0.039 -0.062,-0.078 -0.091,-0.117 -0.101,-0.136 -0.182,-0.242 -0.292,-0.375 -0.044,-0.055 -0.09,-0.109 -0.135,-0.161 -0.085,-0.093 -0.17,-0.212 -0.274,-0.332 -0.055,-0.051 -0.108,-0.097 -0.155,-0.159 -0.083,-0.11 -0.181,-0.22 -0.282,-0.301 -0.064,-0.067 -0.113,-0.136 -0.166,-0.204 -0.1,-0.104 -0.201,-0.18 -0.289,-0.286 -0.057,-0.07 -0.128,-0.141 -0.2,-0.199 -0.104,-0.083 -0.19,-0.185 -0.286,-0.287 -0.077,-0.069 -0.155,-0.117 -0.23,-0.188 -0.083,-0.1 -0.191,-0.199 -0.304,-0.279 -0.076,-0.063 -0.142,-0.137 -0.223,-0.21 -0.113,-0.097 -0.217,-0.168 -0.316,-0.263 -0.089,-0.075 -0.179,-0.148 -0.267,-0.219 -0.094,-0.071 -0.214,-0.167 -0.333,-0.263 -0.074,-0.074 -0.165,-0.133 -0.264,-0.195 -0.124,-0.096 -0.227,-0.19 -0.354,-0.28 -0.097,-0.05 -0.177,-0.125 -0.272,-0.199 -0.134,-0.096 -0.26,-0.181 -0.381,-0.258 -0.106,-0.074 -0.206,-0.147 -0.289,-0.22 -0.143,-0.082 -0.29,-0.165 -0.41,-0.262 -0.107,-0.071 -0.211,-0.142 -0.298,-0.192 -0.154,-0.092 -0.316,-0.193 -0.451,-0.293 -0.108,-0.055 -0.209,-0.104 -0.295,-0.171 -0.182,-0.111 -0.351,-0.22 -0.532,-0.303 -0.095,-0.056 -0.167,-0.112 -0.256,-0.167 -0.277,-0.151 -0.557,-0.302 -0.833,-0.467 -18.281,-9.914 -71.979,-36.997 -114.22,-31.375 -7.609,1.005 -21.634,12.342 -33.82,16.281 l 3.583,6.671 c 5.59,-2.895 17.263,-13.357 32.833,-18.226 z" /><path
   style="fill:#333333"
   id="path7635"
   d="m 642.55,191.957 c -8.98,-7.938 -5.636,-16.16 -11.469,-23.844 0.24,0.326 0.486,0.652 0.698,0.979 -0.028,-0.013 -96.527,-42.059 -120.8,-34.478 -15.569,4.869 -27.242,15.331 -32.831,18.224 l 15.876,29.583 c 11.169,-12.678 21.942,-23.005 31.057,-24.761 20.02,-3.848 83.914,16.298 117.479,34.305 -0.003,-0.001 -0.007,-0.005 -0.01,-0.008 z" />
		</g>
		<g
   style="display:inline"
   id="LB_1_">
			<path
   style="display:inline;fill:#333333"
   id="path7640"
   d="m 241.625,129.887 c -42.248,-5.622 -95.939,21.461 -114.22,31.375 -0.274,0.164 -0.557,0.313 -0.828,0.464 -0.083,0.054 -0.157,0.11 -0.25,0.164 -0.183,0.083 -0.351,0.192 -0.533,0.303 -0.084,0.065 -0.184,0.117 -0.29,0.168 -0.142,0.101 -0.297,0.202 -0.452,0.297 -0.084,0.046 -0.183,0.113 -0.288,0.182 -0.131,0.099 -0.273,0.188 -0.419,0.268 -0.082,0.068 -0.17,0.137 -0.269,0.206 -0.134,0.087 -0.259,0.171 -0.397,0.27 -0.091,0.068 -0.163,0.137 -0.251,0.19 -0.137,0.087 -0.257,0.188 -0.377,0.29 -0.088,0.061 -0.173,0.106 -0.244,0.172 -0.119,0.103 -0.25,0.207 -0.362,0.287 -0.067,0.059 -0.147,0.125 -0.226,0.191 -0.116,0.105 -0.224,0.184 -0.348,0.288 -0.072,0.064 -0.134,0.127 -0.193,0.19 -0.118,0.081 -0.24,0.189 -0.341,0.299 -0.056,0.061 -0.121,0.109 -0.186,0.154 -0.12,0.112 -0.214,0.226 -0.326,0.325 -0.057,0.042 -0.114,0.098 -0.167,0.155 -0.095,0.119 -0.209,0.221 -0.323,0.328 -0.045,0.052 -0.087,0.104 -0.125,0.156 -0.113,0.107 -0.227,0.222 -0.325,0.348 -0.031,0.045 -0.068,0.088 -0.107,0.121 -0.118,0.121 -0.225,0.255 -0.315,0.37 -0.032,0.029 -0.064,0.066 -0.095,0.104 -0.118,0.144 -0.219,0.266 -0.315,0.403 -0.022,0.029 -0.045,0.058 -0.068,0.087 -0.119,0.138 -0.216,0.285 -0.321,0.442 -0.012,0.016 -0.023,0.03 -0.036,0.042 -0.124,0.152 -0.227,0.328 -0.333,0.473 0.025,-0.01 97.688,-41.961 121.984,-34.379 15.54,4.869 27.223,15.331 32.802,18.224 l 3.423,-6.342 c -12.411,-3.594 -27.031,-15.578 -34.879,-16.615 z" />
			<path
   d="m 273.097,152.847 c -5.579,-2.882 -17.262,-13.358 -32.815,-18.231 -24.208,-7.554 -121.307,34.092 -121.977,34.376 -4.971,7.435 -2.211,15.331 -10.841,22.966 -0.016,0.013 -0.042,0.023 -0.06,0.034 33.159,-17.875 99.165,-38.11 118.749,-34.331 9.123,1.756 19.905,12.083 31.08,24.761 l 15.851,-29.583 c 0.004,0.003 0.008,0.006 0.013,0.008 z"
   id="path7644"
   style="display:inline;fill:#333333" />
			
		</g>
		
		
	</g>
	
	<g
   style="display:inline"
   id="g7683">
		<path
   id="path7673"
   style="display:inline;fill:#000000"
   d="M 522.043,0.142 C 511.22,0.545 509.98,11.581 509.861,15.332 v 1.227 c 0,0 2.9,40.716 0,93.094 9.926,2.289 38.535,5.298 38.535,5.298 0,0 0.035,-20.914 0.685,-50.596 C 549.883,26.854 547.87,4.567 547.87,4.567 541.453,0.091 534.302,-0.307 522.043,0.142 Z m 27.037,5.324 c -0.402,-0.319 -0.805,-0.618 -1.211,-0.899 l -2.347,109.995 53.273,7.234 C 586.728,4.974 555.822,10.762 549.08,5.466 Z" />
		<path
   id="path7679"
   style="display:inline;fill:#000000"
   d="m 228.022,0.142 c 10.833,0.403 12.069,11.439 12.193,15.19 v 1.227 c 0,0 -2.901,40.716 0,93.094 -9.926,2.289 -38.539,5.298 -38.539,5.298 0,0 -0.051,-20.914 -0.68,-50.596 -0.811,-37.501 1.211,-59.788 1.211,-59.788 6.417,-4.476 13.566,-4.874 25.815,-4.425 z m -27.026,5.324 c 0.401,-0.319 0.805,-0.618 1.211,-0.899 l 2.322,109.995 -53.248,7.234 C 163.348,4.974 194.24,10.762 200.996,5.466 Z" />
	</g>
</g>

</svg>