<svg width="750px" height="630.46px" enable-background="new 0 0 750 630.455" version="1.1" viewBox="0 0 750 630.46" xmlns="http://www.w3.org/2000/svg"><g><path d="m664.37 213.96c-6.72-16.682-20.542-20.877-21.818-22.003-11.701-10.336-2.474-21.214-19.946-30.695-18.281-9.914-71.979-36.997-114.22-31.375-9.225 1.235-27.837 17.608-41.214 17.608h-92.165-92.165c-13.377 0-31.99-16.374-41.215-17.608-42.248-5.622-95.939 21.461-114.22 31.375-17.472 9.481-8.243 20.359-19.941 30.695-1.281 1.125-15.104 5.321-21.823 22.003-62.752 156.02-87.382 255.15-85.546 315.17 2.891 94.416 76.578 101.33 76.578 101.33 37.033-8.617 111.55-129.14 168.54-129.14h129.8 129.8c56.985 0 131.5 120.52 168.54 129.14 0 0 73.678-6.91 76.563-101.33 1.864-60.015-22.81-159.14-85.535-315.17z"/><path d="m522.04 0.142c-10.823 0.403-12.063 11.439-12.182 15.19v1.227s2.9 40.716 0 93.094c9.926 2.289 38.535 5.298 38.535 5.298s0.035-20.914 0.685-50.596c0.802-37.501-1.211-59.788-1.211-59.788-6.417-4.476-13.568-4.874-25.827-4.425zm27.037 5.324c-0.402-0.319-0.805-0.618-1.211-0.899l-2.347 110 53.273 7.234c-12.067-116.82-42.973-111.03-49.715-116.33z"/><path d="m228.02 0.142c10.833 0.403 12.069 11.439 12.193 15.19v1.227s-2.901 40.716 0 93.094c-9.926 2.289-38.539 5.298-38.539 5.298s-0.051-20.914-0.68-50.596c-0.811-37.501 1.211-59.788 1.211-59.788 6.417-4.476 13.566-4.874 25.815-4.425zm-27.026 5.324c0.401-0.319 0.805-0.618 1.211-0.899l2.322 110-53.248 7.234c12.067-116.82 42.959-111.03 49.715-116.33z"/></g><g stroke="#666" stroke-miterlimit="10" stroke-width="3.0236"><path d="m529.15 393.82c0 30.999-25.106 56.105-56.109 56.105-30.975 0-56.083-25.106-56.083-56.105 0-30.979 25.108-56.085 56.083-56.085 31.003 0 56.109 25.106 56.109 56.085z"/><path d="m241.57 279.86c0 30.977-25.106 56.084-56.103 56.084-30.981 0-56.092-25.107-56.092-56.084 0-31 25.111-56.106 56.092-56.106 30.997 0 56.103 25.106 56.103 56.106z"/></g><g fill="#333"><path d="m229.69 415.05-2.783 2.774c0.961 0.62 1.92 0.846 2.783 0.846h30.818l3.602-3.62h-34.42zm34.42 34.424v-34.424l-3.602 3.62v31.65l0.093 0.236c0.128 0.545 0.345 1.119 0.724 1.689zm27.106 0.234c-0.407 2.329-6.975 3.491-13.542 3.491s-13.134-1.162-13.542-3.491c-0.014-0.082-0.021-0.165-0.021-0.234l-2.785 2.771c0.929 1.367 2.743 2.702 6.168 3.522 2.721 0.672 6.333 1.041 10.18 1.041 3.818 0 7.432-0.369 10.175-1.041 3.43-0.82 5.243-2.157 6.143-3.524l-2.754-2.77c-1e-3 0.07-8e-3 0.153-0.022 0.235zm40.749-58.407c-0.845-3.402-2.181-5.213-3.553-6.143l-2.755 2.778c4.967 0 4.967 27.113 0 27.113l2.76 2.777c1.369-0.93 2.705-2.747 3.548-6.147 0.664-2.746 1.032-6.357 1.032-10.192 0-3.829-0.368-7.441-1.032-10.186zm-40.728 58.173 2.754 2.77c0.624-0.945 0.846-1.92 0.846-2.77v-30.804l-3.6-3.62v34.424zm34.419-34.424h-34.419l3.6 3.62h32.315l0.34-0.345c0.308-0.128 0.617-0.303 0.925-0.498zm-61.546-61.54c0-0.066 8e-3 -0.142 0.02-0.216 9e-3 -0.049 0.021-0.096 0.033-0.142 5e-3 -0.014 0.01-0.022 0.017-0.041 0.015-0.062 0.028-0.122 0.045-0.183 3e-3 -5e-3 6e-3 -0.011 9e-3 -0.017 0.03-0.065 0.066-0.124 0.106-0.165l-2.57-2.57c-0.969 1.121-1.261 2.293-1.261 3.333v30.802l3.602 3.625c-1e-3 -13.83-1e-3 -26.684-1e-3 -34.426zm27.126 1e-3c1e-3 0 1e-3 15.442 1e-3 34.425l3.601-3.625v-30.8c0-0.852-0.222-1.835-0.846-2.773zm34.421 34.426 2.755-2.778c-0.933-0.621-1.92-0.846-2.755-0.846h-30.819l-3.601 3.625c13.807-1e-3 26.661-1e-3 34.42-1e-3zm-56.453-37.412c4e-3 0 8e-3 -1e-3 0.013-2e-3 0.284-0.064 0.579-0.124 0.88-0.181 0.025-4e-3 0.049-8e-3 0.074-0.012 0.295-0.054 0.62-0.105 0.938-0.13 0.025-1e-3 0.046-3e-3 0.059-7e-3 0.333-0.045 0.658-0.088 0.989-0.128h2e-3c0.336-0.041 0.679-0.077 1.027-0.11 0.014 0 0.027-2e-3 0.041-3e-3 0.328-0.031 0.661-0.057 0.996-0.081 0.046-3e-3 0.092-5e-3 0.138-7e-3 0.323-0.014 0.649-0.018 0.977-0.028 0.056-2e-3 0.111-4e-3 0.166-8e-3 0.33-0.013 0.661-0.025 0.994-0.033 0.042-1e-3 0.083-1e-3 0.125-2e-3 0.35-8e-3 0.702-0.012 1.052-0.012 6.768 0 13.563 1.227 13.563 3.729l2.755-2.772c-0.901-1.367-2.713-2.708-6.144-3.524-2.743-0.673-6.357-1.036-10.175-1.036-3.846 0-7.459 0.362-10.18 1.036-2.939 0.718-4.715 1.796-5.725 2.963l2.57 2.57c0.616-1.007 2.438-1.747 4.865-2.222zm-39.514 37.412-2.783-2.778c-1.367 0.93-2.679 2.74-3.525 6.143-0.664 2.746-1.032 6.358-1.032 10.188 0 3.835 0.368 7.447 1.032 10.193 0.845 3.402 2.158 5.212 3.525 6.143l2.783-2.774c-4.996-2e-3 -4.996-27.115 0-27.115zm34.42 0-3.602-3.625h-30.817c-0.863 0-1.822 0.226-2.784 0.846l2.784 2.778c-1e-3 1e-3 15.454 1e-3 34.419 1e-3z"/><path d="m642.55 191.96c-8.98-7.938-5.636-16.16-11.469-23.844 0.24 0.326 0.486 0.652 0.698 0.979-0.028-0.013-96.527-42.059-120.8-34.478-15.569 4.869-27.242 15.331-32.831 18.224l15.876 29.583c11.169-12.678 21.942-23.005 31.057-24.761 20.02-3.848 83.914 16.298 117.48 34.305-3e-3 -1e-3 -7e-3 -5e-3 -0.01-8e-3zm-131.57-57.342c24.273-7.582 120.77 34.465 120.8 34.478-0.212-0.328-0.458-0.654-0.698-0.979-0.029-0.039-0.062-0.078-0.091-0.117-0.101-0.136-0.182-0.242-0.292-0.375-0.044-0.055-0.09-0.109-0.135-0.161-0.085-0.093-0.17-0.212-0.274-0.332-0.055-0.051-0.108-0.097-0.155-0.159-0.083-0.11-0.181-0.22-0.282-0.301-0.064-0.067-0.113-0.136-0.166-0.204-0.1-0.104-0.201-0.18-0.289-0.286-0.057-0.07-0.128-0.141-0.2-0.199-0.104-0.083-0.19-0.185-0.286-0.287-0.077-0.069-0.155-0.117-0.23-0.188-0.083-0.1-0.191-0.199-0.304-0.279-0.076-0.063-0.142-0.137-0.223-0.21-0.113-0.097-0.217-0.168-0.316-0.263-0.089-0.075-0.179-0.148-0.267-0.219-0.094-0.071-0.214-0.167-0.333-0.263-0.074-0.074-0.165-0.133-0.264-0.195-0.124-0.096-0.227-0.19-0.354-0.28-0.097-0.05-0.177-0.125-0.272-0.199-0.134-0.096-0.26-0.181-0.381-0.258-0.106-0.074-0.206-0.147-0.289-0.22-0.143-0.082-0.29-0.165-0.41-0.262-0.107-0.071-0.211-0.142-0.298-0.192-0.154-0.092-0.316-0.193-0.451-0.293-0.108-0.055-0.209-0.104-0.295-0.171-0.182-0.111-0.351-0.22-0.532-0.303-0.095-0.056-0.167-0.112-0.256-0.167-0.277-0.151-0.557-0.302-0.833-0.467-18.281-9.914-71.979-36.997-114.22-31.375-7.609 1.005-21.634 12.342-33.82 16.281l3.583 6.671c5.59-2.895 17.263-13.357 32.833-18.226z"/><path d="m273.1 152.85c-5.579-2.882-17.262-13.358-32.815-18.231-24.208-7.554-121.31 34.092-121.98 34.376-4.971 7.435-2.211 15.331-10.841 22.966-0.016 0.013-0.042 0.023-0.06 0.034 33.159-17.875 99.165-38.11 118.75-34.331 9.123 1.756 19.905 12.083 31.08 24.761l15.851-29.583c4e-3 3e-3 8e-3 6e-3 0.013 8e-3zm-31.472-22.96c-42.248-5.622-95.939 21.461-114.22 31.375-0.274 0.164-0.557 0.313-0.828 0.464-0.083 0.054-0.157 0.11-0.25 0.164-0.183 0.083-0.351 0.192-0.533 0.303-0.084 0.065-0.184 0.117-0.29 0.168-0.142 0.101-0.297 0.202-0.452 0.297-0.084 0.046-0.183 0.113-0.288 0.182-0.131 0.099-0.273 0.188-0.419 0.268-0.082 0.068-0.17 0.137-0.269 0.206-0.134 0.087-0.259 0.171-0.397 0.27-0.091 0.068-0.163 0.137-0.251 0.19-0.137 0.087-0.257 0.188-0.377 0.29-0.088 0.061-0.173 0.106-0.244 0.172-0.119 0.103-0.25 0.207-0.362 0.287-0.067 0.059-0.147 0.125-0.226 0.191-0.116 0.105-0.224 0.184-0.348 0.288-0.072 0.064-0.134 0.127-0.193 0.19-0.118 0.081-0.24 0.189-0.341 0.299-0.056 0.061-0.121 0.109-0.186 0.154-0.12 0.112-0.214 0.226-0.326 0.325-0.057 0.042-0.114 0.098-0.167 0.155-0.095 0.119-0.209 0.221-0.323 0.328-0.045 0.052-0.087 0.104-0.125 0.156-0.113 0.107-0.227 0.222-0.325 0.348-0.031 0.045-0.068 0.088-0.107 0.121-0.118 0.121-0.225 0.255-0.315 0.37-0.032 0.029-0.064 0.066-0.095 0.104-0.118 0.144-0.219 0.266-0.315 0.403-0.022 0.029-0.045 0.058-0.068 0.087-0.119 0.138-0.216 0.285-0.321 0.442-0.012 0.016-0.023 0.03-0.036 0.042-0.124 0.152-0.227 0.328-0.333 0.473 0.025-0.01 97.688-41.961 121.98-34.379 15.54 4.869 27.223 15.331 32.802 18.224l3.423-6.342c-12.411-3.594-27.031-15.578-34.879-16.615z"/><path d="m566.76 205.3c13.1 0 23.705 10.605 23.705 23.687 0 13.101-10.605 23.707-23.705 23.707-13.082 0-23.688-10.606-23.688-23.707-1e-3 -13.082 10.606-23.687 23.688-23.687m0-3c-14.716 0-26.688 11.972-26.688 26.687 0 14.726 11.973 26.707 26.688 26.707 14.725 0 26.705-11.981 26.705-26.707 0-14.716-11.98-26.687-26.705-26.687z"/><path d="m516.22 255.84c13.105 0 23.711 10.605 23.711 23.689 0 13.099-10.605 23.704-23.711 23.704-13.076 0-23.683-10.605-23.683-23.704 0-13.084 10.607-23.689 23.683-23.689m0-3c-14.713 0-26.683 11.973-26.683 26.689 0 14.725 11.97 26.704 26.683 26.704 14.729 0 26.711-11.979 26.711-26.704 0-14.716-11.983-26.689-26.711-26.689z"/><path d="m617.3 255.84c13.097 0 23.703 10.605 23.703 23.689 0 13.099-10.606 23.704-23.703 23.704-13.085 0-23.69-10.605-23.69-23.704-1e-3 -13.084 10.605-23.689 23.69-23.689m0-3c-14.717 0-26.69 11.973-26.69 26.689 0 14.725 11.973 26.704 26.69 26.704 14.724 0 26.703-11.979 26.703-26.704 0-14.716-11.979-26.689-26.703-26.689z"/><path d="m566.76 306.38c13.1 0 23.705 10.605 23.705 23.694 0 13.093-10.605 23.699-23.705 23.699-13.082 0-23.688-10.605-23.688-23.699-1e-3 -13.089 10.606-23.694 23.688-23.694m0-3c-14.716 0-26.688 11.975-26.688 26.694 0 14.722 11.973 26.699 26.688 26.699 14.725 0 26.705-11.977 26.705-26.699 0-14.719-11.98-26.694-26.705-26.694z"/><path d="m430.13 261.56c-10.398 0-18.82 8.4337-18.82 18.805 0 10.397 8.4223 18.818 18.82 18.818 10.369 0 18.787-8.4214 18.787-18.818 0-10.371-8.4181-18.804-18.787-18.805zm0 2.7031c8.873 1e-3 16.102 7.2066 16.102 16.102 0 8.902-7.2286 16.104-16.102 16.104-8.902 0-16.104-7.2015-16.104-16.104 0-8.896 7.2015-16.102 16.104-16.102z"/><path d="m322.12 261.56c-10.369 0-18.789 8.4337-18.789 18.805 0 10.397 8.4211 18.818 18.789 18.818 10.398 0 18.82-8.4214 18.82-18.818 0-10.371-8.4223-18.804-18.82-18.805zm0 2.7031c8.902 1e-3 16.104 7.2066 16.104 16.102 0 8.902-7.2015 16.104-16.104 16.104-8.872 0-16.102-7.2015-16.102-16.104 0-8.896 7.2296-16.102 16.102-16.102z"/><path d="m422.93 275.74h14.361v1.552h-14.361zm0 3.919h14.361v1.552h-14.361zm0 3.809h14.361v1.552h-14.361z"/><path d="m320.35 278.43v7.584h8.96v-7.584zm7.16 5.783h-5.47v-3.945h5.47zm-12.561-2.078h4.65v-1.866h-3.031v-3.785h5.472v1.321h1.8v-3.059h-8.891z"/></g></svg>
