<svg width="171.15px" height="62.864px" enable-background="new 0 0 171.154 62.864" version="1.1" viewBox="0 0 171.15 62.864" xmlns="http://www.w3.org/2000/svg"><path d="m165.69 23.72c-5.579-2.882-17.262-13.358-32.815-18.231-24.208-7.555-121.31 34.092-121.98 34.375-4.97 7.435-2.211 15.331-10.841 22.966-0.016 0.013-0.042 0.024-0.06 0.034 33.159-17.875 99.165-38.11 118.75-34.331 9.123 1.756 19.905 12.083 31.08 24.761l15.851-29.583c5e-3 4e-3 8e-3 7e-3 0.013 9e-3zm-31.472-22.96c-42.247-5.622-95.939 21.461-114.22 31.375-0.274 0.164-0.557 0.313-0.828 0.464-0.083 0.054-0.157 0.11-0.25 0.164-0.183 0.083-0.351 0.192-0.533 0.303-0.084 0.065-0.184 0.117-0.29 0.168-0.142 0.101-0.297 0.202-0.452 0.297-0.084 0.046-0.183 0.113-0.288 0.182-0.131 0.099-0.273 0.188-0.419 0.268-0.082 0.068-0.17 0.137-0.269 0.206-0.134 0.087-0.259 0.171-0.397 0.27-0.091 0.068-0.163 0.137-0.251 0.19-0.137 0.087-0.257 0.188-0.377 0.29-0.088 0.061-0.173 0.106-0.244 0.172-0.119 0.103-0.25 0.207-0.362 0.287-0.067 0.059-0.147 0.125-0.226 0.191-0.116 0.105-0.224 0.184-0.348 0.288-0.072 0.064-0.134 0.127-0.193 0.19-0.118 0.081-0.24 0.189-0.341 0.299-0.056 0.061-0.121 0.109-0.186 0.154-0.12 0.112-0.214 0.226-0.326 0.325-0.057 0.042-0.114 0.098-0.167 0.155-0.095 0.119-0.209 0.221-0.323 0.328-0.045 0.052-0.087 0.104-0.125 0.156-0.113 0.107-0.227 0.222-0.325 0.348-0.031 0.045-0.068 0.088-0.107 0.121-0.118 0.121-0.225 0.255-0.315 0.37-0.032 0.029-0.064 0.066-0.095 0.104-0.118 0.144-0.219 0.266-0.315 0.403-0.022 0.029-0.045 0.058-0.068 0.087-0.119 0.138-0.216 0.285-0.321 0.442-0.012 0.016-0.023 0.03-0.036 0.042-0.124 0.152-0.227 0.328-0.333 0.473 0.025-0.01 97.688-41.961 121.98-34.379 15.54 4.869 27.223 15.331 32.802 18.224l3.423-6.342c-12.411-3.594-27.031-15.578-34.879-16.615z" fill="#fff"/></svg>
