<svg width="750px" height="630.46px" enable-background="new 0 0 750 630.455" version="1.1" viewBox="0 0 750 630.46" xmlns="http://www.w3.org/2000/svg"><g fill="#f55"><path d="m548.36 114.95 50.436 6.849c-12.066-116.82-42.972-111.03-49.714-116.33-0.402-0.319-0.805-0.618-1.211-0.899-6.416-4.476-13.566-4.873-25.826-4.425-10.823 0.403-12.063 11.439-12.182 15.19v1.227s2.9 40.716 0 93.094c9.787 2.256 37.718 5.211 38.497 5.293z"/><path d="m201.68 114.95s28.613-3.009 38.539-5.298c-2.901-52.378 0-93.094 0-93.094v-1.227c-0.124-3.751-1.36-14.787-12.193-15.19-12.249-0.448-19.398-0.051-25.815 4.425-0.407 0.281-0.811 0.58-1.211 0.899-6.756 5.296-37.648-0.492-49.715 116.33l50.395-6.846z"/><path d="m664.37 213.96c-6.72-16.682-20.542-20.877-21.818-22.003-11.701-10.336-2.474-21.214-19.946-30.695-18.281-9.914-71.979-36.997-114.22-31.375-9.225 1.235-27.837 17.608-41.214 17.608h-92.165-92.165c-13.377 0-31.99-16.374-41.215-17.608-42.248-5.622-95.939 21.461-114.22 31.375-17.472 9.481-8.243 20.359-19.941 30.695-1.281 1.125-15.104 5.321-21.823 22.003-62.752 156.02-87.382 255.15-85.546 315.17 2.891 94.416 76.578 101.33 76.578 101.33 37.033-8.617 111.55-129.14 168.54-129.14h129.8 129.8c56.985 0 131.5 120.52 168.54 129.14 0 0 73.678-6.91 76.563-101.33 1.864-60.015-22.81-159.14-85.535-315.17z"/></g></svg>
