<?xml version="1.0" encoding="UTF-8" standalone="no"?>
<svg
   xmlns:dc="http://purl.org/dc/elements/1.1/"
   xmlns:cc="http://creativecommons.org/ns#"
   xmlns:rdf="http://www.w3.org/1999/02/22-rdf-syntax-ns#"
   xmlns:svg="http://www.w3.org/2000/svg"
   xmlns="http://www.w3.org/2000/svg"
   xml:space="preserve"
   enable-background="new 0 0 750 630.455"
   viewBox="0 0 750 630.455"
   height="630.455px"
   width="750px"
   y="0px"
   x="0px"
   id="Layer_1"
   version="1.1"><metadata
   id="metadata8011"><rdf:RDF><cc:Work
       rdf:about=""><dc:format>image/svg+xml</dc:format><dc:type
         rdf:resource="http://purl.org/dc/dcmitype/StillImage" /><dc:title></dc:title></cc:Work></rdf:RDF></metadata><defs
   id="defs8009" />
<g
   id="g7948">
	
	<path
   style="fill:#ff5555"
   id="path7944"
   d="m 548.358,114.946 50.436,6.849 C 586.728,4.974 555.822,10.762 549.08,5.466 548.678,5.147 548.275,4.848 547.869,4.567 541.453,0.091 534.303,-0.306 522.043,0.142 511.22,0.545 509.98,11.581 509.861,15.332 v 1.227 c 0,0 2.9,40.716 0,93.094 9.787,2.256 37.718,5.211 38.497,5.293 z" />
	<path
   style="fill:#ff5555"
   id="path7946"
   d="m 201.676,114.95 c 0,0 28.613,-3.009 38.539,-5.298 -2.901,-52.378 0,-93.094 0,-93.094 V 15.331 C 240.091,11.58 238.855,0.544 228.022,0.141 215.773,-0.307 208.624,0.09 202.207,4.566 c -0.407,0.281 -0.811,0.58 -1.211,0.899 -6.756,5.296 -37.648,-0.492 -49.715,116.329 l 50.395,-6.846 z" /><path
   style="fill:#ff5555"
   id="path7942"
   d="m 664.368,213.96 c -6.72,-16.682 -20.542,-20.877 -21.818,-22.003 -11.701,-10.336 -2.474,-21.214 -19.946,-30.695 -18.281,-9.914 -71.979,-36.997 -114.22,-31.375 -9.225,1.235 -27.837,17.608 -41.214,17.608 -21.865,0 -92.165,0 -92.165,0 0,0 -70.3,0 -92.165,0 -13.377,0 -31.99,-16.374 -41.215,-17.608 -42.248,-5.622 -95.939,21.461 -114.22,31.375 -17.472,9.481 -8.243,20.359 -19.941,30.695 -1.281,1.125 -15.104,5.321 -21.823,22.003 -62.752,156.024 -87.382,255.154 -85.546,315.169 2.891,94.416 76.578,101.326 76.578,101.326 37.033,-8.617 111.55,-129.135 168.535,-129.135 31.16,0 129.797,0 129.797,0 0,0 98.637,0 129.797,0 56.985,0 131.502,120.518 168.538,129.135 0,0 73.678,-6.91 76.563,-101.326 1.864,-60.015 -22.81,-159.145 -85.535,-315.169 z" />
</g>
<g
   id="g7974">
	<path
   style="fill:#ffffff"
   id="path7950"
   d="m 184.219,353.411 v -44.813 h 12.938 c 16.521,0 24.781,7.281 24.781,21.844 0,6.917 -2.292,12.474 -6.875,16.672 -4.583,4.198 -10.729,6.297 -18.438,6.297 z m 7.406,-38.5 v 32.219 h 5.938 c 5.229,0 9.297,-1.438 12.203,-4.313 2.906,-2.875 4.359,-6.938 4.359,-12.188 0,-10.479 -5.427,-15.719 -16.281,-15.719 h -6.219 z" />
	<path
   style="fill:#ffffff"
   id="path7952"
   d="m 232.969,314.692 c -1.188,0 -2.203,-0.385 -3.047,-1.156 -0.844,-0.771 -1.266,-1.75 -1.266,-2.938 0,-1.188 0.422,-2.177 1.266,-2.969 0.844,-0.792 1.859,-1.188 3.047,-1.188 1.229,0 2.271,0.396 3.125,1.188 0.854,0.792 1.281,1.781 1.281,2.969 0,1.125 -0.427,2.089 -1.281,2.891 -0.855,0.803 -1.896,1.203 -3.125,1.203 z m 3.594,38.719 h -7.25 v -32 h 7.25 z" />
	<path
   style="fill:#ffffff"
   id="path7954"
   d="m 244.031,352.411 v -6.719 c 2.708,2.063 5.698,3.094 8.969,3.094 4.375,0 6.563,-1.292 6.563,-3.875 0,-0.729 -0.188,-1.349 -0.563,-1.859 -0.375,-0.51 -0.88,-0.963 -1.516,-1.359 -0.636,-0.396 -1.386,-0.75 -2.25,-1.063 -0.865,-0.313 -1.828,-0.667 -2.891,-1.063 -1.313,-0.521 -2.495,-1.073 -3.547,-1.656 -1.052,-0.583 -1.927,-1.245 -2.625,-1.984 -0.698,-0.739 -1.224,-1.578 -1.578,-2.516 -0.354,-0.938 -0.531,-2.031 -0.531,-3.281 0,-1.542 0.364,-2.901 1.094,-4.078 0.729,-1.177 1.708,-2.167 2.938,-2.969 1.229,-0.802 2.625,-1.406 4.188,-1.813 1.563,-0.407 3.177,-0.609 4.844,-0.609 2.958,0 5.604,0.448 7.938,1.344 v 6.344 c -2.25,-1.542 -4.833,-2.313 -7.75,-2.313 -0.917,0 -1.745,0.094 -2.484,0.281 -0.74,0.188 -1.37,0.448 -1.891,0.781 -0.521,0.333 -0.927,0.734 -1.219,1.203 -0.292,0.469 -0.438,0.984 -0.438,1.547 0,0.688 0.146,1.271 0.438,1.75 0.292,0.479 0.724,0.901 1.297,1.266 0.573,0.365 1.26,0.698 2.063,1 0.802,0.302 1.724,0.63 2.766,0.984 1.375,0.563 2.609,1.136 3.703,1.719 1.094,0.583 2.026,1.245 2.797,1.984 0.771,0.74 1.364,1.594 1.781,2.563 0.417,0.969 0.625,2.12 0.625,3.453 0,1.625 -0.375,3.042 -1.125,4.25 -0.75,1.208 -1.75,2.208 -3,3 -1.25,0.792 -2.693,1.38 -4.328,1.766 -1.636,0.385 -3.359,0.578 -5.172,0.578 -3.502,0 -6.533,-0.583 -9.096,-1.75 z" />
	<path
   style="fill:#ffffff"
   id="path7956"
   d="m 296.531,351.942 c -2.563,1.479 -5.594,2.219 -9.094,2.219 -4.75,0 -8.583,-1.484 -11.5,-4.453 -2.917,-2.969 -4.375,-6.817 -4.375,-11.547 0,-5.271 1.567,-9.505 4.703,-12.703 3.135,-3.198 7.328,-4.797 12.578,-4.797 2.917,0 5.489,0.511 7.719,1.531 v 6.75 c -2.229,-1.667 -4.604,-2.5 -7.125,-2.5 -3.063,0 -5.573,1.037 -7.531,3.109 -1.958,2.073 -2.938,4.787 -2.938,8.141 0,3.313 0.922,5.927 2.766,7.844 1.844,1.917 4.317,2.875 7.422,2.875 2.604,0 5.063,-0.927 7.375,-2.781 z" />
	<path
   style="fill:#ffffff"
   id="path7958"
   d="m 317.906,354.161 c -4.938,0 -8.88,-1.495 -11.828,-4.484 -2.948,-2.989 -4.422,-6.953 -4.422,-11.891 0,-5.375 1.536,-9.573 4.609,-12.594 3.073,-3.021 7.213,-4.531 12.422,-4.531 5,0 8.896,1.469 11.688,4.406 2.792,2.938 4.188,7.011 4.188,12.219 0,5.104 -1.505,9.193 -4.516,12.266 -3.011,3.073 -7.058,4.609 -12.141,4.609 z m 0.344,-27.719 c -2.833,0 -5.073,0.99 -6.719,2.969 -1.646,1.979 -2.469,4.708 -2.469,8.188 0,3.354 0.833,5.995 2.5,7.922 1.667,1.927 3.896,2.891 6.688,2.891 2.854,0 5.047,-0.948 6.578,-2.844 1.531,-1.896 2.297,-4.594 2.297,-8.094 0,-3.521 -0.766,-6.239 -2.297,-8.156 -1.531,-1.917 -3.724,-2.876 -6.578,-2.876 z" />
	<path
   style="fill:#ffffff"
   id="path7960"
   d="m 370.438,353.411 h -7.25 V 335.38 c 0,-5.979 -2.115,-8.969 -6.344,-8.969 -2.208,0 -4.031,0.828 -5.469,2.484 -1.438,1.656 -2.156,3.745 -2.156,6.266 v 18.25 h -7.281 v -32 h 7.281 v 5.313 h 0.125 c 2.396,-4.042 5.854,-6.063 10.375,-6.063 3.479,0 6.135,1.13 7.969,3.391 1.833,2.261 2.75,5.526 2.75,9.797 z" />
	<path
   style="fill:#ffffff"
   id="path7962"
   d="m 407.781,353.411 h -7.25 V 335.38 c 0,-5.979 -2.115,-8.969 -6.344,-8.969 -2.208,0 -4.031,0.828 -5.469,2.484 -1.438,1.656 -2.156,3.745 -2.156,6.266 v 18.25 h -7.281 v -32 h 7.281 v 5.313 h 0.125 c 2.396,-4.042 5.854,-6.063 10.375,-6.063 3.479,0 6.135,1.13 7.969,3.391 1.833,2.261 2.75,5.526 2.75,9.797 z" />
	<path
   style="fill:#ffffff"
   id="path7964"
   d="m 443.719,339.38 h -21.813 c 0.083,2.958 0.995,5.24 2.734,6.844 1.739,1.604 4.13,2.406 7.172,2.406 3.417,0 6.552,-1.021 9.406,-3.063 v 5.844 c -2.917,1.833 -6.771,2.75 -11.563,2.75 -4.708,0 -8.401,-1.453 -11.078,-4.359 -2.677,-2.906 -4.016,-6.995 -4.016,-12.266 0,-4.979 1.474,-9.036 4.422,-12.172 2.948,-3.135 6.609,-4.703 10.984,-4.703 4.375,0 7.76,1.406 10.156,4.219 2.396,2.813 3.594,6.719 3.594,11.719 v 2.781 z m -7,-5.125 c -0.021,-2.604 -0.636,-4.63 -1.844,-6.078 -1.208,-1.448 -2.875,-2.172 -5,-2.172 -2.083,0 -3.849,0.761 -5.297,2.281 -1.448,1.521 -2.339,3.511 -2.672,5.969 z" />
	<path
   style="fill:#ffffff"
   id="path7966"
   d="m 473.531,351.942 c -2.563,1.479 -5.594,2.219 -9.094,2.219 -4.75,0 -8.583,-1.484 -11.5,-4.453 -2.917,-2.969 -4.375,-6.817 -4.375,-11.547 0,-5.271 1.567,-9.505 4.703,-12.703 3.135,-3.198 7.328,-4.797 12.578,-4.797 2.917,0 5.489,0.511 7.719,1.531 v 6.75 c -2.229,-1.667 -4.604,-2.5 -7.125,-2.5 -3.063,0 -5.573,1.037 -7.531,3.109 -1.958,2.073 -2.938,4.787 -2.938,8.141 0,3.313 0.922,5.927 2.766,7.844 1.844,1.917 4.317,2.875 7.422,2.875 2.604,0 5.063,-0.927 7.375,-2.781 z" />
	<path
   style="fill:#ffffff"
   id="path7968"
   d="m 497.594,353.067 c -1.417,0.708 -3.281,1.063 -5.594,1.063 -6.208,0 -9.313,-2.979 -9.313,-8.938 v -18.094 h -5.344 v -5.688 h 5.344 v -7.406 l 7.25,-2.063 v 9.469 h 7.656 v 5.688 h -7.656 v 16 c 0,1.896 0.344,3.25 1.031,4.063 0.687,0.813 1.833,1.219 3.438,1.219 1.229,0 2.292,-0.354 3.188,-1.063 z" />
	<path
   style="fill:#ffffff"
   id="path7970"
   d="M 530.563,339.38 H 508.75 c 0.083,2.958 0.995,5.24 2.734,6.844 1.739,1.604 4.13,2.406 7.172,2.406 3.417,0 6.552,-1.021 9.406,-3.063 v 5.844 c -2.917,1.833 -6.771,2.75 -11.563,2.75 -4.708,0 -8.401,-1.453 -11.078,-4.359 -2.677,-2.906 -4.016,-6.995 -4.016,-12.266 0,-4.979 1.474,-9.036 4.422,-12.172 2.948,-3.135 6.609,-4.703 10.984,-4.703 4.375,0 7.76,1.406 10.156,4.219 2.396,2.813 3.594,6.719 3.594,11.719 v 2.781 z m -7,-5.125 c -0.021,-2.604 -0.636,-4.63 -1.844,-6.078 -1.208,-1.448 -2.875,-2.172 -5,-2.172 -2.083,0 -3.849,0.761 -5.297,2.281 -1.448,1.521 -2.339,3.511 -2.672,5.969 z" />
	<path
   style="fill:#ffffff"
   id="path7972"
   d="m 566.563,353.411 h -7.25 v -5.438 h -0.125 c -2.333,4.125 -5.927,6.188 -10.781,6.188 -3.938,0 -7.089,-1.432 -9.453,-4.297 -2.365,-2.864 -3.547,-6.766 -3.547,-11.703 0,-5.292 1.307,-9.531 3.922,-12.719 2.614,-3.188 6.099,-4.781 10.453,-4.781 4.313,0 7.448,1.729 9.406,5.188 h 0.125 v -19.813 h 7.25 z m -7.157,-14.625 v -4.188 c 0,-2.271 -0.74,-4.198 -2.219,-5.781 -1.479,-1.583 -3.365,-2.375 -5.656,-2.375 -2.708,0 -4.839,1.011 -6.391,3.031 -1.552,2.021 -2.328,4.823 -2.328,8.406 0,3.25 0.745,5.818 2.234,7.703 1.489,1.886 3.495,2.828 6.016,2.828 2.479,0 4.489,-0.911 6.031,-2.734 1.542,-1.822 2.313,-4.119 2.313,-6.89 z" />
</g>















</svg>