<?xml version="1.0" encoding="UTF-8" standalone="no"?>
<svg
   xmlns:dc="http://purl.org/dc/elements/1.1/"
   xmlns:cc="http://creativecommons.org/ns#"
   xmlns:rdf="http://www.w3.org/1999/02/22-rdf-syntax-ns#"
   xmlns:svg="http://www.w3.org/2000/svg"
   xmlns="http://www.w3.org/2000/svg"
   xml:space="preserve"
   enable-background="new 0 0 45 45"
   viewBox="0 0 45 45"
   height="45px"
   width="45px"
   y="0px"
   x="0px"
   id="Layer_1"
   version="1.1"><metadata
   id="metadata8471"><rdf:RDF><cc:Work
       rdf:about=""><dc:format>image/svg+xml</dc:format><dc:type
         rdf:resource="http://purl.org/dc/dcmitype/StillImage" /><dc:title></dc:title></cc:Work></rdf:RDF></metadata><defs
   id="defs8469">
		
			
		
	</defs>
<g
   style="display:none"
   id="g8434">
	<g
   style="display:inline"
   id="g8432">
		<rect
   style="display:inline;fill:#1a1a1a"
   id="rect8428"
   height="8.5290003"
   width="8.5380001"
   y="27.635"
   x="27.625" />
		<path
   style="display:inline;fill:#dedede"
   id="path8430"
   d="m 35.664,28.135 v 7.529 h -7.538 v -7.529 h 7.538 m 1,-1 h -9.538 v 9.529 h 9.538 z" />
	</g><g
   style="display:inline"
   id="g8410">
		<rect
   style="fill:#1a1a1a"
   id="rect8406"
   height="8.5290003"
   width="8.5380001"
   y="27.635"
   x="8.8360004" />
		<path
   style="fill:#dedede"
   id="path8408"
   d="m 16.875,28.135 v 7.529 H 9.336 v -7.529 h 7.539 m 1,-1 H 8.336 v 9.529 h 9.538 v -9.529 z" />
	</g>
	<g
   style="display:inline"
   id="g8426">
		<rect
   style="fill:#1a1a1a"
   id="rect8422"
   height="8.5380001"
   width="8.5380001"
   y="8.8360004"
   x="27.625" />
		<path
   style="fill:#dedede"
   id="path8424"
   d="m 35.664,9.336 v 7.538 H 28.126 V 9.336 h 7.538 m 1,-1 h -9.538 v 9.538 h 9.538 z" />
	</g><g
   style="display:inline"
   id="g8418">
			<rect
   x="8.8360004"
   y="8.8360004"
   width="8.5380001"
   height="8.5380001"
   id="rect8414"
   style="fill:#ffffff" />
			<path
   d="m 16.875,9.336 v 7.538 H 9.336 V 9.336 h 7.539 m 1,-1 H 8.336 v 9.538 h 9.538 V 8.336 Z"
   id="path8416"
   style="fill:#dedede" />
		</g>
	
	
</g>















</svg>