<svg width="67.409px" height="33.206px" enable-background="new 0 0 67.409 33.206" version="1.1" viewBox="0 0 67.409 33.206" xmlns="http://www.w3.org/2000/svg"><g fill="#fff"><path d="m32.706 16.603c0 8.903-7.201 16.103-16.103 16.103-8.872 0-16.103-7.2-16.103-16.103 0-8.896 7.231-16.103 16.103-16.103 8.902 0 16.103 7.207 16.103 16.103z"/><path d="m66.909 16.603c0 8.903-7.229 16.103-16.102 16.103-8.901 0-16.102-7.2-16.102-16.103 0-8.896 7.2-16.103 16.102-16.103 8.874 0 16.102 7.207 16.102 16.103z"/></g><g fill="#666"><path d="m43.612 11.978h14.361v1.552h-14.361zm0 3.918h14.361v1.552h-14.361zm0 3.81h14.361v1.552h-14.361z"/><path d="m14.837 14.663v7.584h8.96v-7.584zm7.161 5.784h-5.47v-3.945h5.47zm-10.942-7.729h5.472v1.321h1.8v-3.06h-8.891v7.39h4.65v-1.867h-3.031z"/></g></svg>
