<?xml version="1.0" encoding="UTF-8" standalone="no"?>
<!-- Generator: Adobe Illustrator 16.0.0, SVG Export Plug-In . SVG Version: 6.00 Build 0)  -->

<svg
   xmlns:dc="http://purl.org/dc/elements/1.1/"
   xmlns:cc="http://creativecommons.org/ns#"
   xmlns:rdf="http://www.w3.org/1999/02/22-rdf-syntax-ns#"
   xmlns:svg="http://www.w3.org/2000/svg"
   xmlns="http://www.w3.org/2000/svg"
   xmlns:sodipodi="http://sodipodi.sourceforge.net/DTD/sodipodi-0.dtd"
   xmlns:inkscape="http://www.inkscape.org/namespaces/inkscape"
   version="1.1"
   id="Layer_1"
   x="0px"
   y="0px"
   width="67.409px"
   height="33.206px"
   viewBox="0 0 67.409 33.206"
   enable-background="new 0 0 67.409 33.206"
   xml:space="preserve"
   sodipodi:docname="start-select.svg"
   inkscape:version="0.92.4 (5da689c313, 2019-01-14)"><metadata
   id="metadata8596"><rdf:RDF><cc:Work
       rdf:about=""><dc:format>image/svg+xml</dc:format><dc:type
         rdf:resource="http://purl.org/dc/dcmitype/StillImage" /><dc:title></dc:title></cc:Work></rdf:RDF></metadata><defs
   id="defs8594" /><sodipodi:namedview
   pagecolor="#ffffff"
   bordercolor="#666666"
   borderopacity="1"
   objecttolerance="10"
   gridtolerance="10"
   guidetolerance="10"
   inkscape:pageopacity="0"
   inkscape:pageshadow="2"
   inkscape:window-width="1920"
   inkscape:window-height="1017"
   id="namedview8592"
   showgrid="false"
   inkscape:zoom="12.573028"
   inkscape:cx="38.525944"
   inkscape:cy="18.133904"
   inkscape:window-x="-8"
   inkscape:window-y="-8"
   inkscape:window-maximized="1"
   inkscape:current-layer="Switcher_PRessed" />
<g
   id="Menu_Pressed"
   inkscape:label="start"
   style="display:inline">
	<path
   stroke-miterlimit="10"
   d="m 66.909,16.603 c 0,8.903 -7.229,16.103 -16.102,16.103 -8.901,0 -16.102,-7.2 -16.102,-16.103 0,-8.896 7.2,-16.103 16.102,-16.103 8.874,0 16.102,7.207 16.102,16.103 z"
   id="path8541"
   inkscape:connector-curvature="0"
   style="display:inline;fill:#ffffff;fill-opacity:1;stroke:#000000;stroke-miterlimit:10;stroke-opacity:0"
   inkscape:label="c" />
	<g
   id="g8549"
   inkscape:label="r"
   style="display:inline">
		<rect
   x="43.612"
   y="19.705999"
   width="14.361"
   height="1.5319999"
   id="rect8547"
   style="fill:#666666"
   inkscape:label="3" /><rect
   x="43.612"
   y="15.896"
   width="14.361"
   height="1.552"
   id="rect8545"
   style="fill:#666666"
   inkscape:label="2" /><rect
   x="43.612"
   y="11.978"
   width="14.361"
   height="1.552"
   id="rect8543"
   style="fill:#666666"
   inkscape:label="1" />
		
		
	</g>
</g>
<g
   id="Switcher_PRessed"
   inkscape:label="select">
	<path
   stroke-miterlimit="10"
   d="m 32.706,16.603 c 0,8.903 -7.201,16.103 -16.103,16.103 C 7.731,32.706 0.5,25.506 0.5,16.603 0.5,7.707 7.731,0.5 16.603,0.5 c 8.902,0 16.103,7.207 16.103,16.103 z"
   id="path8552"
   inkscape:connector-curvature="0"
   style="display:inline;fill:#ffffff;fill-opacity:1;stroke:#000000;stroke-miterlimit:10;stroke-opacity:0"
   inkscape:label="c" />
	<g
   id="g8558"
   inkscape:label="r">
		<polygon
   points="18.328,10.979 9.437,10.979 9.437,18.369 14.087,18.369 14.087,16.502 11.056,16.502 11.056,12.718 16.528,12.718 16.528,14.039 18.328,14.039 "
   id="polygon8554"
   style="display:inline;fill:#666666"
   inkscape:label="2" />
		<path
   d="m 14.837,14.663 v 7.584 h 8.96 v -7.584 z m 7.161,5.784 h -5.47 v -3.945 h 5.47 z"
   id="path8556"
   inkscape:connector-curvature="0"
   style="display:inline;fill:#666666"
   inkscape:label="1" />
	</g>
</g>















</svg>