<svg width="168.77px" height="83.384px" enable-background="new 0 0 168.77 83.384" version="1.1" viewBox="0 0 168.77 83.384" xmlns="http://www.w3.org/2000/svg"><g fill="#666"><path d="m127.07 10.582c-17.195 0-31.125 13.927-31.125 31.121 0 17.191 13.93 31.127 31.125 31.127 17.198 0 31.127-13.936 31.127-31.127 0-17.194-13.929-31.121-31.127-31.121z"/><path d="m41.685 16.582c13.855 0 25.127 11.269 25.127 25.121 0 13.856-11.272 25.128-25.127 25.128-13.854 0-25.124-11.272-25.124-25.128 0-13.852 11.271-25.121 25.124-25.121m0-6c-17.195 0-31.124 13.927-31.124 31.121 0 17.191 13.929 31.128 31.124 31.128 17.198 0 31.127-13.937 31.127-31.128 1e-3 -17.194-13.929-31.121-31.127-31.121z"/></g><path d="m41.685 69.832c-15.508 0-28.124-12.618-28.124-28.128 0-15.506 12.616-28.121 28.124-28.121 15.51 0 28.127 12.615 28.127 28.121 1e-3 15.509-12.617 28.128-28.127 28.128z" fill="#fff"/></svg>
