<?xml version="1.0" encoding="UTF-8" standalone="no"?>
<!-- Generator: Adobe Illustrator 16.0.0, SVG Export Plug-In . SVG Version: 6.00 Build 0)  -->

<svg
   xmlns:dc="http://purl.org/dc/elements/1.1/"
   xmlns:cc="http://creativecommons.org/ns#"
   xmlns:rdf="http://www.w3.org/1999/02/22-rdf-syntax-ns#"
   xmlns:svg="http://www.w3.org/2000/svg"
   xmlns="http://www.w3.org/2000/svg"
   xmlns:sodipodi="http://sodipodi.sourceforge.net/DTD/sodipodi-0.dtd"
   xmlns:inkscape="http://www.inkscape.org/namespaces/inkscape"
   version="1.1"
   id="Layer_1"
   x="0px"
   y="0px"
   width="88.934px"
   height="121.795px"
   viewBox="0 0 88.934 121.795"
   enable-background="new 0 0 88.934 121.795"
   xml:space="preserve"
   sodipodi:docname="trigger.svg"
   inkscape:version="0.92.4 (5da689c313, 2019-01-14)"><metadata
   id="metadata8698"><rdf:RDF><cc:Work
       rdf:about=""><dc:format>image/svg+xml</dc:format><dc:type
         rdf:resource="http://purl.org/dc/dcmitype/StillImage" /><dc:title></dc:title></cc:Work></rdf:RDF></metadata><defs
   id="defs8696" /><sodipodi:namedview
   pagecolor="#ffffff"
   bordercolor="#666666"
   borderopacity="1"
   objecttolerance="10"
   gridtolerance="10"
   guidetolerance="10"
   inkscape:pageopacity="0"
   inkscape:pageshadow="2"
   inkscape:window-width="1920"
   inkscape:window-height="1017"
   id="namedview8694"
   showgrid="false"
   inkscape:zoom="6.8557824"
   inkscape:cx="44.466999"
   inkscape:cy="60.897499"
   inkscape:window-x="-8"
   inkscape:window-y="-8"
   inkscape:window-maximized="1"
   inkscape:current-layer="Layer_1" />
<g
   id="LT_Pressed"
   inkscape:label="LTp">
	
	
	<path
   d="m 76.741,0.142 c 10.833,0.403 12.069,11.439 12.193,15.19 v 1.227 c 0,0 -2.901,40.716 0,93.094 -9.926,2.289 -38.539,5.298 -38.539,5.298 0,0 -0.051,-20.914 -0.68,-50.596 C 48.904,26.854 50.926,4.567 50.926,4.567 57.343,0.091 64.492,-0.307 76.741,0.142 Z"
   id="path8660"
   inkscape:connector-curvature="0"
   style="display:inline;fill:#ffffff;fill-opacity:1"
   inkscape:label="2" /><path
   d="M 49.715,5.466 C 50.116,5.147 50.52,4.848 50.926,4.567 L 53.248,114.562 0,121.795 C 12.067,4.974 42.959,10.762 49.715,5.466 Z"
   id="path8658"
   inkscape:connector-curvature="0"
   style="display:inline;fill:#ffffff;fill-opacity:1"
   inkscape:label="1" />
</g>















</svg>