<svg width="192" height="96" version="1.1" viewBox="0 0 192 96" xmlns="http://www.w3.org/2000/svg"><rect y="48" width="192" height="48" fill="#fff"/><path d="m180.19 57.459-10.234 16.328v12.754h-3.8672v-12.344l-10.273-16.738h4.2773l7.9492 13.008 8.0273-13.008z"/><path d="m132.38 57.459-10.039 14.375 10.02 14.707h-4.4727l-7.9297-11.973-8.125 11.973h-4.2188l10.137-14.531-9.9023-14.551h4.4531l7.832 11.816 8.0078-11.816z"/><path d="m82.967 77.596q0 2.168-0.82031 3.8281-0.82031 1.6602-2.207 2.7344-1.6406 1.2891-3.6133 1.8359-1.9531 0.54688-4.9805 0.54688h-10.312v-29.082h8.6133q3.1836 0 4.7656 0.23437 1.582 0.23438 3.0273 0.97657 1.6016 0.83984 2.3242 2.168 0.72265 1.3086 0.72265 3.1445 0 2.0703-1.0547 3.5352-1.0547 1.4453-2.8125 2.3242v0.15625q2.9492 0.60547 4.6484 2.5977 1.6992 1.9726 1.6992 5zm-6.5039-13.105q0-1.0547-0.35156-1.7774-0.35156-0.72265-1.1328-1.1719-0.91798-0.52734-2.2266-0.64453-1.3086-0.13672-3.2422-0.13672h-4.6094v8.3984h5q1.8164 0 2.8906-0.17578 1.0742-0.19532 1.9922-0.78125 0.91798-0.58594 1.2891-1.5039 0.39062-0.9375 0.39062-2.207zm2.4805 13.262q0-1.7578-0.52735-2.793-0.52734-1.0352-1.9141-1.7578-0.9375-0.48829-2.2852-0.625-1.3281-0.15625-3.2422-0.15625h-6.0742v10.82h5.1172q2.5391 0 4.1602-0.25391 1.6211-0.27344 2.6562-0.97656 1.0938-0.76172 1.6016-1.7383 0.50782-0.97656 0.50783-2.5195z"/><path d="m37.164 86.541h-4.1211l-2.8516-8.1055h-12.578l-2.8516 8.1055h-3.9258l10.586-29.082h5.1562zm-8.1641-11.426-5.0976-14.277-5.1172 14.277z"/><g fill="#333"><path d="m180.19 9.459-10.234 16.328v12.754h-3.8672v-12.344l-10.273-16.738h4.2773l7.9492 13.008 8.0273-13.008z"/><path d="m132.38 9.459-10.039 14.375 10.02 14.707h-4.4727l-7.9297-11.973-8.125 11.973h-4.2188l10.137-14.531-9.9023-14.551h4.4531l7.832 11.816 8.0078-11.816z"/><path d="m82.967 29.596q0 2.168-0.82031 3.8281-0.82031 1.6602-2.207 2.7344-1.6406 1.2891-3.6133 1.8359-1.9531 0.54688-4.9805 0.54688h-10.312v-29.082h8.6133q3.1836 0 4.7656 0.23437 1.582 0.23438 3.0273 0.97657 1.6016 0.83984 2.3242 2.168 0.72265 1.3086 0.72265 3.1445 0 2.0703-1.0547 3.5352-1.0547 1.4453-2.8125 2.3242v0.15625q2.9492 0.60547 4.6484 2.5977 1.6992 1.9726 1.6992 5zm-6.5039-13.105q0-1.0547-0.35156-1.7774-0.35156-0.72265-1.1328-1.1719-0.91798-0.52734-2.2266-0.64453-1.3086-0.13672-3.2422-0.13672h-4.6094v8.3984h5q1.8164 0 2.8906-0.17578 1.0742-0.19532 1.9922-0.78125 0.91798-0.58594 1.2891-1.5039 0.39062-0.9375 0.39062-2.207zm2.4805 13.262q0-1.7578-0.52735-2.793-0.52734-1.0352-1.9141-1.7578-0.9375-0.48829-2.2852-0.625-1.3281-0.15625-3.2422-0.15625h-6.0742v10.82h5.1172q2.5391 0 4.1602-0.25391 1.6211-0.27344 2.6562-0.97656 1.0938-0.76172 1.6016-1.7383 0.50782-0.97656 0.50783-2.5195z"/><path d="m37.164 38.541h-4.1211l-2.8516-8.1055h-12.578l-2.8516 8.1055h-3.9258l10.586-29.082h5.1562zm-8.1641-11.426-5.0976-14.277-5.1172 14.277z"/></g></svg>
